<svg id="mol3" xmlns="http://www.w3.org/2000/svg" version="1.1" width="176px" height="101px" viewBox="70 49 176 101">
  <style> text {font-family: sans-serif;} #mol3 { pointer-events:none; } #mol3 .event  { pointer-events:all; } line { stroke-linecap:round; } polygon { stroke-linejoin:round; } </style>
  <text x="117.26" y="165.4" stroke="none" font-size="12" fill="rgb(160,0,0)">this enantiomer</text>
  <text x="134.24" y="80.69" stroke="none" font-size="14" fill="rgb(255,13,13)">O</text>
  <text x="113.6" y="116.94" stroke="none" font-size="14" fill="rgb(255,13,13)">O</text>
  <text x="155.26" y="116.94" stroke="none" font-size="14" fill="rgb(48,80,248)">N</text>
  <text x="155.26" y="130.94" stroke="none" font-size="14" fill="rgb(48,80,248)">H</text>
  <text x="174.95" y="108" stroke="none" font-size="9" fill="rgb(160,0,0)">S</text>
  <text x="179.17" y="99.89" stroke="none" font-size="9" fill="rgb(160,0,0)">abs</text>
  <text x="174.45" y="84.02" stroke="none" font-size="9" fill="rgb(160,0,0)">R</text>
  <text x="173.7" y="72.72" stroke="none" font-size="9" fill="rgb(160,0,0)">abs</text>
  <text x="196.14" y="140.92" stroke="none" font-size="14" fill="rgb(255,13,13)">O</text>
  <text x="216.78" y="104.67" stroke="none" font-size="14" fill="rgb(255,13,13)">O</text>
  <text x="227.67" y="104.67" stroke="none" font-size="14" fill="rgb(255,13,13)">H</text>
  <text x="154.87" y="68.42" stroke="none" font-size="14" fill="rgb(255,13,13)">O</text>
  <text x="144.76" y="68.42" stroke="none" font-size="14" fill="rgb(255,13,13)">H</text>
  <line x1="141.48" y1="101.07" x2="141.48" y2="83.02" stroke="rgb(0,0,0)" stroke-width="1.44" />
  <line x1="137.88" y1="101.07" x2="137.88" y2="83.02" stroke="rgb(0,0,0)" stroke-width="1.44" />
  <line x1="199.79" y1="111.2" x2="199.79" y2="129.25" stroke="rgb(0,0,0)" stroke-width="1.44" />
  <line x1="203.39" y1="111.2" x2="203.39" y2="129.25" stroke="rgb(0,0,0)" stroke-width="1.44" />
  <line x1="139.68" y1="100" x2="125.49" y2="108.44" stroke="rgb(0,0,0)" stroke-width="1.44" />
  <line x1="139.68" y1="100" x2="154.26" y2="108.67" stroke="rgb(0,0,0)" stroke-width="1.44" />
  <line x1="112.6" y1="108.44" x2="98.41" y2="100" stroke="rgb(0,0,0)" stroke-width="1.44" />
  <polygon points="181,100 173,104 174,105 " fill="rgb(160,0,0)" stroke="rgb(160,0,0)" stroke-width="1.44" />
  <polygon points="174,105 173,104 165,107 167,110 " fill="rgb(160,0,0)" stroke="rgb(160,0,0)" stroke-width="1.44" />
  <line x1="98.41" y1="100" x2="98.41" y2="76.02" stroke="rgb(0,0,0)" stroke-width="1.44" />
  <line x1="98.41" y1="100" x2="77.78" y2="87.73" stroke="rgb(0,0,0)" stroke-width="1.44" />
  <line x1="98.41" y1="100" x2="77.78" y2="112.27" stroke="rgb(0,0,0)" stroke-width="1.44" />
  <line x1="180.95" y1="100" x2="201.59" y2="112.27" stroke="rgb(0,0,0)" stroke-width="1.44" />
  <line x1="180.95" y1="100" x2="180.95" y2="76.02" stroke="rgb(0,0,0)" stroke-width="1.44" />
  <line x1="201.59" y1="112.27" x2="215.78" y2="103.83" stroke="rgb(0,0,0)" stroke-width="1.44" />
  <line x1="178.72" y1="74.25" x2="178.33" y2="74.9" stroke="rgb(160,0,0)" stroke-width="1.44" />
  <line x1="176.48" y1="72.49" x2="175.71" y2="73.78" stroke="rgb(160,0,0)" stroke-width="1.44" />
  <line x1="174.24" y1="70.72" x2="173.09" y2="72.66" stroke="rgb(160,0,0)" stroke-width="1.44" />
  <line x1="172.01" y1="68.95" x2="170.48" y2="71.53" stroke="rgb(160,0,0)" stroke-width="1.44" />
  <line x1="169.77" y1="67.19" x2="167.86" y2="70.41" stroke="rgb(160,0,0)" stroke-width="1.44" />
  <line x1="167.54" y1="65.42" x2="166.76" y2="66.72" stroke="rgb(160,0,0)" stroke-width="1.44" />
  <line x1="180.95" y1="76.02" x2="201.59" y2="63.75" stroke="rgb(0,0,0)" stroke-width="1.44" />
  <line id="mol3:Bond:0" class="event" x1="139.68" y1="76.02" x2="139.68" y2="100" stroke-width="8" opacity="0" />
  <line id="mol3:Bond:10" class="event" x1="201.59" y1="112.27" x2="201.59" y2="136.25" stroke-width="8" opacity="0" />
  <line id="mol3:Bond:1" class="event" x1="139.68" y1="100" x2="119.05" y2="112.27" stroke-width="8" opacity="0" />
  <line id="mol3:Bond:2" class="event" x1="139.68" y1="100" x2="160.32" y2="112.27" stroke-width="8" opacity="0" />
  <line id="mol3:Bond:3" class="event" x1="119.05" y1="112.27" x2="98.41" y2="100" stroke-width="8" opacity="0" />
  <line id="mol3:Bond:4" class="event" x1="180.95" y1="100" x2="160.32" y2="112.27" stroke-width="8" opacity="0" />
  <line id="mol3:Bond:5" class="event" x1="98.41" y1="100" x2="98.41" y2="76.02" stroke-width="8" opacity="0" />
  <line id="mol3:Bond:6" class="event" x1="98.41" y1="100" x2="77.78" y2="87.73" stroke-width="8" opacity="0" />
  <line id="mol3:Bond:7" class="event" x1="98.41" y1="100" x2="77.78" y2="112.27" stroke-width="8" opacity="0" />
  <line id="mol3:Bond:8" class="event" x1="180.95" y1="100" x2="201.59" y2="112.27" stroke-width="8" opacity="0" />
  <line id="mol3:Bond:9" class="event" x1="180.95" y1="100" x2="180.95" y2="76.02" stroke-width="8" opacity="0" />
  <line id="mol3:Bond:11" class="event" x1="201.59" y1="112.27" x2="222.22" y2="100" stroke-width="8" opacity="0" />
  <line id="mol3:Bond:12" class="event" x1="180.95" y1="76.02" x2="160.32" y2="63.75" stroke-width="8" opacity="0" />
  <line id="mol3:Bond:13" class="event" x1="180.95" y1="76.02" x2="201.59" y2="63.75" stroke-width="8" opacity="0" />
  <circle id="mol3:Atom:0" class="event" cx="139.68" cy="76.02" r="8" opacity="0" />
  <circle id="mol3:Atom:1" class="event" cx="139.68" cy="100" r="8" opacity="0" />
  <circle id="mol3:Atom:2" class="event" cx="119.05" cy="112.27" r="8" opacity="0" />
  <circle id="mol3:Atom:3" class="event" cx="160.32" cy="112.27" r="8" opacity="0" />
  <circle id="mol3:Atom:4" class="event" cx="98.41" cy="100" r="8" opacity="0" />
  <circle id="mol3:Atom:5" class="event" cx="180.95" cy="100" r="8" opacity="0" />
  <circle id="mol3:Atom:6" class="event" cx="98.41" cy="76.02" r="8" opacity="0" />
  <circle id="mol3:Atom:7" class="event" cx="77.78" cy="87.73" r="8" opacity="0" />
  <circle id="mol3:Atom:8" class="event" cx="77.78" cy="112.27" r="8" opacity="0" />
  <circle id="mol3:Atom:9" class="event" cx="201.59" cy="112.27" r="8" opacity="0" />
  <circle id="mol3:Atom:10" class="event" cx="180.95" cy="76.02" r="8" opacity="0" />
  <circle id="mol3:Atom:11" class="event" cx="201.59" cy="136.25" r="8" opacity="0" />
  <circle id="mol3:Atom:12" class="event" cx="222.22" cy="100" r="8" opacity="0" />
  <circle id="mol3:Atom:13" class="event" cx="160.32" cy="63.75" r="8" opacity="0" />
  <circle id="mol3:Atom:14" class="event" cx="201.59" cy="63.75" r="8" opacity="0" />
</svg>