<svg id="mol6" xmlns="http://www.w3.org/2000/svg" version="1.1" width="167px" height="94px" viewBox="70 57 167 94">
  <style> text {font-family: sans-serif;} #mol6 { pointer-events:none; } #mol6 .event  { pointer-events:all; } line { stroke-linecap:round; } polygon { stroke-linejoin:round; } </style>
  <text x="106.87" y="165.15" stroke="none" font-size="12" fill="rgb(160,0,0)">both enantiomers</text>
  <text x="134.16" y="80.67" stroke="none" font-size="14" fill="rgb(255,13,13)">O</text>
  <text x="217.3" y="104.67" stroke="none" font-size="14" fill="rgb(255,13,13)">O</text>
  <text x="196.52" y="140.67" stroke="none" font-size="14" fill="rgb(255,13,13)">O</text>
  <text x="207.41" y="140.67" stroke="none" font-size="14" fill="rgb(255,13,13)">H</text>
  <text x="155.34" y="116.67" stroke="none" font-size="14" fill="rgb(48,80,248)">N</text>
  <text x="155.34" y="130.67" stroke="none" font-size="14" fill="rgb(48,80,248)">H</text>
  <text x="113.38" y="116.67" stroke="none" font-size="14" fill="rgb(255,13,13)">O</text>
  <text x="181.13" y="99.85" stroke="none" font-size="9" fill="rgb(0,128,0)">&amp;1</text>
  <line x1="141.41" y1="101.04" x2="141.41" y2="83" stroke="rgb(0,0,0)" stroke-width="1.44" />
  <line x1="137.81" y1="101.04" x2="137.81" y2="83" stroke="rgb(0,0,0)" stroke-width="1.44" />
  <line x1="201.96" y1="114.08" x2="217.2" y2="105.28" stroke="rgb(0,0,0)" stroke-width="1.44" />
  <line x1="200.16" y1="110.96" x2="215.4" y2="102.16" stroke="rgb(0,0,0)" stroke-width="1.44" />
  <line x1="201.96" y1="64" x2="181.18" y2="76" stroke="rgb(0,0,0)" stroke-width="1.44" />
  <line x1="160.39" y1="64" x2="181.18" y2="76" stroke="rgb(0,0,0)" stroke-width="1.44" />
  <line x1="98.04" y1="76" x2="98.04" y2="100" stroke="rgb(0,0,0)" stroke-width="1.44" />
  <line x1="77.25" y1="112" x2="98.04" y2="100" stroke="rgb(0,0,0)" stroke-width="1.44" />
  <line x1="77.25" y1="88" x2="98.04" y2="100" stroke="rgb(0,0,0)" stroke-width="1.44" />
  <line x1="201.96" y1="129" x2="201.96" y2="112" stroke="rgb(0,0,0)" stroke-width="1.44" />
  <line x1="154.34" y1="108.5" x2="139.61" y2="100" stroke="rgb(0,0,0)" stroke-width="1.44" />
  <polygon points="181,100 173,103 174,105 " fill="rgb(0,128,0)" stroke="rgb(0,128,0)" stroke-width="1.44" />
  <polygon points="174,105 173,103 166,107 167,110 " fill="rgb(0,128,0)" stroke="rgb(0,128,0)" stroke-width="1.44" />
  <line x1="125.27" y1="108.28" x2="139.61" y2="100" stroke="rgb(0,0,0)" stroke-width="1.44" />
  <line x1="112.38" y1="108.28" x2="98.04" y2="100" stroke="rgb(0,0,0)" stroke-width="1.44" />
  <line x1="201.96" y1="112" x2="181.18" y2="100" stroke="rgb(0,0,0)" stroke-width="1.44" />
  <line x1="181.18" y1="76" x2="181.18" y2="100" stroke="rgb(0,0,0)" stroke-width="1.44" />
  <line id="mol6:Bond:5" class="event" x1="139.61" y1="76" x2="139.61" y2="100" stroke-width="8" opacity="0" />
  <line id="mol6:Bond:6" class="event" x1="222.75" y1="100" x2="201.96" y2="112" stroke-width="8" opacity="0" />
  <line id="mol6:Bond:0" class="event" x1="201.96" y1="64" x2="181.18" y2="76" stroke-width="8" opacity="0" />
  <line id="mol6:Bond:1" class="event" x1="160.39" y1="64" x2="181.18" y2="76" stroke-width="8" opacity="0" />
  <line id="mol6:Bond:2" class="event" x1="98.04" y1="76" x2="98.04" y2="100" stroke-width="8" opacity="0" />
  <line id="mol6:Bond:3" class="event" x1="77.25" y1="112" x2="98.04" y2="100" stroke-width="8" opacity="0" />
  <line id="mol6:Bond:4" class="event" x1="77.25" y1="88" x2="98.04" y2="100" stroke-width="8" opacity="0" />
  <line id="mol6:Bond:7" class="event" x1="201.96" y1="136" x2="201.96" y2="112" stroke-width="8" opacity="0" />
  <line id="mol6:Bond:8" class="event" x1="160.39" y1="112" x2="139.61" y2="100" stroke-width="8" opacity="0" />
  <line id="mol6:Bond:9" class="event" x1="181.18" y1="100" x2="160.39" y2="112" stroke-width="8" opacity="0" />
  <line id="mol6:Bond:10" class="event" x1="118.82" y1="112" x2="139.61" y2="100" stroke-width="8" opacity="0" />
  <line id="mol6:Bond:11" class="event" x1="118.82" y1="112" x2="98.04" y2="100" stroke-width="8" opacity="0" />
  <line id="mol6:Bond:12" class="event" x1="201.96" y1="112" x2="181.18" y2="100" stroke-width="8" opacity="0" />
  <line id="mol6:Bond:13" class="event" x1="181.18" y1="76" x2="181.18" y2="100" stroke-width="8" opacity="0" />
  <circle id="mol6:Atom:0" class="event" cx="201.96" cy="64" r="8" opacity="0" />
  <circle id="mol6:Atom:1" class="event" cx="160.39" cy="64" r="8" opacity="0" />
  <circle id="mol6:Atom:2" class="event" cx="98.04" cy="76" r="8" opacity="0" />
  <circle id="mol6:Atom:3" class="event" cx="77.25" cy="112" r="8" opacity="0" />
  <circle id="mol6:Atom:4" class="event" cx="77.25" cy="88" r="8" opacity="0" />
  <circle id="mol6:Atom:5" class="event" cx="139.61" cy="76" r="8" opacity="0" />
  <circle id="mol6:Atom:6" class="event" cx="222.75" cy="100" r="8" opacity="0" />
  <circle id="mol6:Atom:7" class="event" cx="201.96" cy="136" r="8" opacity="0" />
  <circle id="mol6:Atom:8" class="event" cx="160.39" cy="112" r="8" opacity="0" />
  <circle id="mol6:Atom:9" class="event" cx="118.82" cy="112" r="8" opacity="0" />
  <circle id="mol6:Atom:10" class="event" cx="139.61" cy="100" r="8" opacity="0" />
  <circle id="mol6:Atom:11" class="event" cx="201.96" cy="112" r="8" opacity="0" />
  <circle id="mol6:Atom:12" class="event" cx="181.18" cy="76" r="8" opacity="0" />
  <circle id="mol6:Atom:13" class="event" cx="181.18" cy="100" r="8" opacity="0" />
  <circle id="mol6:Atom:14" class="event" cx="98.04" cy="100" r="8" opacity="0" />
</svg>